<mxfile host="Electron" modified="2025-02-20T12:28:02.977Z" agent="Mozilla/5.0 (Windows NT 10.0; Win64; x64) AppleWebKit/537.36 (KHTML, like Gecko) draw.io/22.0.3 Chrome/114.0.5735.289 Electron/25.8.4 Safari/537.36" etag="GiqoYXr31EeQrnaN0Ysw" version="22.0.3" type="device" pages="5">
  <diagram id="C5RBs43oDa-KdzZeNtuy" name="Login screen">
    <mxGraphModel dx="1668" dy="974" grid="1" gridSize="10" guides="1" tooltips="1" connect="1" arrows="1" fold="1" page="1" pageScale="1" pageWidth="827" pageHeight="1169" math="0" shadow="0">
      <root>
        <mxCell id="WIyWlLk6GJQsqaUBKTNV-0" />
        <mxCell id="WIyWlLk6GJQsqaUBKTNV-1" parent="WIyWlLk6GJQsqaUBKTNV-0" />
        <mxCell id="_Xf8jzLifvAwVVOiHjZx-0" value="Пример" style="strokeWidth=1;shadow=0;dashed=0;align=center;html=1;shape=mxgraph.mockup.containers.window;align=left;verticalAlign=top;spacingLeft=8;strokeColor2=#008cff;strokeColor3=#c4c4c4;fontColor=#666666;mainText=;fontSize=17;labelBackgroundColor=none;whiteSpace=wrap;" vertex="1" parent="WIyWlLk6GJQsqaUBKTNV-1">
          <mxGeometry width="820" height="340" as="geometry" />
        </mxCell>
        <mxCell id="o5v_RuGt0bPiSBh93b0e-0" value="Логин" style="fillColor=none;strokeColor=none;align=left;fontSize=20;fontFamily=Times New Roman;" parent="WIyWlLk6GJQsqaUBKTNV-1" vertex="1">
          <mxGeometry width="260" height="40" relative="1" as="geometry">
            <mxPoint x="79" y="50" as="offset" />
          </mxGeometry>
        </mxCell>
        <mxCell id="o5v_RuGt0bPiSBh93b0e-1" value="" style="html=1;shadow=0;dashed=0;shape=mxgraph.bootstrap.rrect;rSize=5;fillColor=none;strokeColor=#999999;align=left;spacing=15;fontSize=14;fontColor=#6C767D;fontFamily=Times New Roman;" parent="WIyWlLk6GJQsqaUBKTNV-1" vertex="1">
          <mxGeometry width="680" height="30" relative="1" as="geometry">
            <mxPoint x="79" y="90" as="offset" />
          </mxGeometry>
        </mxCell>
        <mxCell id="o5v_RuGt0bPiSBh93b0e-3" value="Пароль" style="fillColor=none;strokeColor=none;align=left;fontSize=20;fontFamily=Times New Roman;" parent="WIyWlLk6GJQsqaUBKTNV-1" vertex="1">
          <mxGeometry width="260" height="40" relative="1" as="geometry">
            <mxPoint x="79" y="120" as="offset" />
          </mxGeometry>
        </mxCell>
        <mxCell id="o5v_RuGt0bPiSBh93b0e-4" value="" style="html=1;shadow=0;dashed=0;shape=mxgraph.bootstrap.rrect;rSize=5;fillColor=none;strokeColor=#999999;align=left;spacing=15;fontSize=14;fontColor=#6C767D;fontFamily=Times New Roman;" parent="WIyWlLk6GJQsqaUBKTNV-1" vertex="1">
          <mxGeometry width="680" height="30" relative="1" as="geometry">
            <mxPoint x="79" y="160" as="offset" />
          </mxGeometry>
        </mxCell>
        <mxCell id="o5v_RuGt0bPiSBh93b0e-6" value="Войти" style="html=1;shadow=0;dashed=0;shape=mxgraph.bootstrap.rrect;rSize=5;fillColor=#0085FC;strokeColor=none;align=center;fontSize=14;fontColor=#FFFFFF;fontFamily=Times New Roman;" parent="WIyWlLk6GJQsqaUBKTNV-1" vertex="1">
          <mxGeometry width="70" height="40" relative="1" as="geometry">
            <mxPoint x="79" y="220" as="offset" />
          </mxGeometry>
        </mxCell>
        <mxCell id="o5v_RuGt0bPiSBh93b0e-7" value="&lt;font style=&quot;font-size: 20px;&quot;&gt;Войти&lt;/font&gt;" style="html=1;shadow=0;dashed=0;shape=mxgraph.bootstrap.rrect;rSize=5;fillColor=#0050ef;strokeColor=#001DBC;align=center;fontSize=14;fontColor=#ffffff;fontFamily=Times New Roman;" parent="WIyWlLk6GJQsqaUBKTNV-1" vertex="1">
          <mxGeometry x="79" y="220" width="101" height="40" as="geometry" />
        </mxCell>
        <mxCell id="o5v_RuGt0bPiSBh93b0e-8" value="Зарегестрироваться" style="html=1;shadow=0;dashed=0;shape=mxgraph.bootstrap.rrect;rSize=5;fillColor=#0050ef;strokeColor=#001DBC;align=center;fontSize=20;fontColor=#ffffff;fontFamily=Times New Roman;" parent="WIyWlLk6GJQsqaUBKTNV-1" vertex="1">
          <mxGeometry x="210" y="220" width="221" height="40" as="geometry" />
        </mxCell>
        <UserObject label="Забыли пароль?" link="https://www.draw.io" id="o5v_RuGt0bPiSBh93b0e-10">
          <mxCell style="text;html=1;strokeColor=none;fillColor=none;whiteSpace=wrap;align=center;verticalAlign=middle;fontColor=#0000EE;fontStyle=4;fontFamily=Times New Roman;fontSize=16;" parent="WIyWlLk6GJQsqaUBKTNV-1" vertex="1">
            <mxGeometry x="69" y="270" width="130" height="40" as="geometry" />
          </mxCell>
        </UserObject>
        <UserObject label="Условия пользования" link="https://www.draw.io" id="o5v_RuGt0bPiSBh93b0e-11">
          <mxCell style="text;html=1;strokeColor=none;fillColor=none;whiteSpace=wrap;align=center;verticalAlign=middle;fontColor=#0000EE;fontStyle=4;fontFamily=Times New Roman;fontSize=16;" parent="WIyWlLk6GJQsqaUBKTNV-1" vertex="1">
            <mxGeometry x="220" y="270" width="156" height="40" as="geometry" />
          </mxCell>
        </UserObject>
        <UserObject label="Политика конфидециальности" link="https://www.draw.io" id="o5v_RuGt0bPiSBh93b0e-12">
          <mxCell style="text;html=1;strokeColor=none;fillColor=none;whiteSpace=wrap;align=center;verticalAlign=middle;fontColor=#0000EE;fontStyle=4;fontFamily=Times New Roman;fontSize=16;" parent="WIyWlLk6GJQsqaUBKTNV-1" vertex="1">
            <mxGeometry x="400" y="270" width="216" height="40" as="geometry" />
          </mxCell>
        </UserObject>
      </root>
    </mxGraphModel>
  </diagram>
  <diagram id="Lb3aVdWIwpXPXD3H8pVa" name="Main screen">
    <mxGraphModel dx="1418" dy="828" grid="1" gridSize="10" guides="1" tooltips="1" connect="1" arrows="1" fold="1" page="1" pageScale="1" pageWidth="827" pageHeight="1169" math="0" shadow="0">
      <root>
        <mxCell id="0" />
        <mxCell id="1" parent="0" />
        <mxCell id="Kpa2wtbLdazwyNUupC8n-1" value="Пример" style="strokeWidth=1;shadow=0;dashed=0;align=center;html=1;shape=mxgraph.mockup.containers.window;align=left;verticalAlign=top;spacingLeft=8;strokeColor2=#008cff;strokeColor3=#c4c4c4;fontColor=#666666;mainText=;fontSize=17;labelBackgroundColor=none;whiteSpace=wrap;" vertex="1" parent="1">
          <mxGeometry width="820" height="290" as="geometry" />
        </mxCell>
        <mxCell id="m05NOQ2zas2y1Qg4LJAP-6" value="&lt;font style=&quot;font-size: 20px;&quot; face=&quot;Times New Roman&quot;&gt;Проекты&lt;/font&gt;" style="swimlane;fontStyle=0;childLayout=stackLayout;horizontal=1;startSize=30;horizontalStack=0;resizeParent=1;resizeParentMax=0;resizeLast=0;collapsible=1;marginBottom=0;whiteSpace=wrap;html=1;movable=1;resizable=1;rotatable=1;deletable=1;editable=1;locked=0;connectable=1;" parent="1" vertex="1">
          <mxGeometry x="395" y="60" width="350" height="190" as="geometry" />
        </mxCell>
        <mxCell id="m05NOQ2zas2y1Qg4LJAP-7" value="&lt;font style=&quot;font-size: 20px;&quot;&gt;&amp;nbsp; Название&lt;/font&gt;" style="text;strokeColor=none;fillColor=none;align=left;verticalAlign=middle;spacingLeft=4;spacingRight=4;overflow=hidden;points=[[0,0.5],[1,0.5]];portConstraint=eastwest;rotatable=1;whiteSpace=wrap;html=1;fontFamily=Times New Roman;movable=1;resizable=1;deletable=1;editable=1;locked=0;connectable=1;" parent="m05NOQ2zas2y1Qg4LJAP-6" vertex="1">
          <mxGeometry y="30" width="350" height="50" as="geometry" />
        </mxCell>
        <mxCell id="m05NOQ2zas2y1Qg4LJAP-8" value="&lt;font style=&quot;font-size: 20px;&quot;&gt;&amp;nbsp; Название&lt;/font&gt;" style="text;strokeColor=none;fillColor=none;align=left;verticalAlign=middle;spacingLeft=4;spacingRight=4;overflow=hidden;points=[[0,0.5],[1,0.5]];portConstraint=eastwest;rotatable=1;whiteSpace=wrap;html=1;fontFamily=Times New Roman;movable=1;resizable=1;deletable=1;editable=1;locked=0;connectable=1;" parent="m05NOQ2zas2y1Qg4LJAP-6" vertex="1">
          <mxGeometry y="80" width="350" height="50" as="geometry" />
        </mxCell>
        <mxCell id="m05NOQ2zas2y1Qg4LJAP-9" value="&lt;font face=&quot;Times New Roman&quot; style=&quot;font-size: 20px;&quot;&gt;&amp;nbsp; Название&lt;/font&gt;" style="text;strokeColor=none;fillColor=none;align=left;verticalAlign=middle;spacingLeft=4;spacingRight=4;overflow=hidden;points=[[0,0.5],[1,0.5]];portConstraint=eastwest;rotatable=1;whiteSpace=wrap;html=1;movable=1;resizable=1;deletable=1;editable=1;locked=0;connectable=1;" parent="m05NOQ2zas2y1Qg4LJAP-6" vertex="1">
          <mxGeometry y="130" width="350" height="60" as="geometry" />
        </mxCell>
        <mxCell id="m05NOQ2zas2y1Qg4LJAP-1" value="" style="rounded=0;whiteSpace=wrap;html=1;" parent="1" vertex="1">
          <mxGeometry x="70" y="60" width="280" height="190" as="geometry" />
        </mxCell>
        <mxCell id="m05NOQ2zas2y1Qg4LJAP-2" value="&lt;font style=&quot;font-size: 20px;&quot;&gt;Проекты&lt;/font&gt;" style="text;html=1;strokeColor=none;fillColor=none;align=left;verticalAlign=middle;whiteSpace=wrap;rounded=0;fontFamily=Times New Roman;" parent="1" vertex="1">
          <mxGeometry x="80" y="80" width="110" height="30" as="geometry" />
        </mxCell>
        <mxCell id="m05NOQ2zas2y1Qg4LJAP-3" value="&lt;div style=&quot;&quot;&gt;&lt;span style=&quot;font-size: 20px; background-color: initial;&quot;&gt;Задачи&lt;/span&gt;&lt;/div&gt;" style="text;html=1;strokeColor=none;fillColor=none;align=left;verticalAlign=middle;whiteSpace=wrap;rounded=0;fontFamily=Times New Roman;" parent="1" vertex="1">
          <mxGeometry x="80" y="120" width="110" height="30" as="geometry" />
        </mxCell>
        <mxCell id="m05NOQ2zas2y1Qg4LJAP-4" value="&lt;font style=&quot;font-size: 20px;&quot;&gt;Календарь&lt;/font&gt;" style="text;html=1;strokeColor=none;fillColor=none;align=left;verticalAlign=middle;whiteSpace=wrap;rounded=0;fontFamily=Times New Roman;" parent="1" vertex="1">
          <mxGeometry x="80" y="160" width="110" height="30" as="geometry" />
        </mxCell>
        <mxCell id="m05NOQ2zas2y1Qg4LJAP-5" value="&lt;font style=&quot;font-size: 20px;&quot;&gt;Профиль&lt;/font&gt;" style="text;html=1;strokeColor=none;fillColor=none;align=left;verticalAlign=middle;whiteSpace=wrap;rounded=0;fontFamily=Times New Roman;" parent="1" vertex="1">
          <mxGeometry x="80" y="200" width="110" height="30" as="geometry" />
        </mxCell>
        <mxCell id="FUR7wzRC1bH5YTmGmZWL-6" value="&lt;font face=&quot;Times New Roman&quot; style=&quot;font-size: 20px;&quot;&gt;К проекту&lt;/font&gt;" style="rounded=1;fillColor=#0050ef;strokeColor=#001DBC;html=1;whiteSpace=wrap;fontColor=#ffffff;align=center;verticalAlign=middle;fontStyle=0;fontSize=12;sketch=0;movable=1;resizable=1;rotatable=1;deletable=1;editable=1;locked=0;connectable=1;" parent="1" vertex="1">
          <mxGeometry x="605" y="102" width="126" height="33" as="geometry" />
        </mxCell>
        <mxCell id="FUR7wzRC1bH5YTmGmZWL-7" value="&lt;font face=&quot;Times New Roman&quot; style=&quot;font-size: 20px;&quot;&gt;К проекту&lt;/font&gt;" style="rounded=1;fillColor=#0057D8;strokeColor=none;html=1;whiteSpace=wrap;fontColor=#ffffff;align=center;verticalAlign=middle;fontStyle=0;fontSize=12;sketch=0;movable=1;resizable=1;rotatable=1;deletable=1;editable=1;locked=0;connectable=1;" parent="1" vertex="1">
          <mxGeometry x="605" y="153" width="126" height="33" as="geometry" />
        </mxCell>
        <mxCell id="FUR7wzRC1bH5YTmGmZWL-8" value="&lt;font face=&quot;Times New Roman&quot; style=&quot;font-size: 20px;&quot;&gt;К проекту&lt;/font&gt;" style="rounded=1;fillColor=#0057D8;strokeColor=none;html=1;whiteSpace=wrap;fontColor=#ffffff;align=center;verticalAlign=middle;fontStyle=0;fontSize=12;sketch=0;movable=1;resizable=1;rotatable=1;deletable=1;editable=1;locked=0;connectable=1;" parent="1" vertex="1">
          <mxGeometry x="605" y="207" width="126" height="33" as="geometry" />
        </mxCell>
        <mxCell id="FUR7wzRC1bH5YTmGmZWL-9" value="&lt;font face=&quot;Times New Roman&quot;&gt;Статус&lt;/font&gt;" style="text;html=1;strokeColor=none;fillColor=none;align=center;verticalAlign=middle;whiteSpace=wrap;rounded=0;movable=1;resizable=1;rotatable=1;deletable=1;editable=1;locked=0;connectable=1;" parent="1" vertex="1">
          <mxGeometry x="505" y="102" width="70" height="30" as="geometry" />
        </mxCell>
        <mxCell id="FUR7wzRC1bH5YTmGmZWL-10" value="&lt;font face=&quot;Times New Roman&quot;&gt;Статус&lt;/font&gt;" style="text;html=1;strokeColor=none;fillColor=none;align=center;verticalAlign=middle;whiteSpace=wrap;rounded=0;movable=1;resizable=1;rotatable=1;deletable=1;editable=1;locked=0;connectable=1;" parent="1" vertex="1">
          <mxGeometry x="505" y="156" width="70" height="30" as="geometry" />
        </mxCell>
        <mxCell id="FUR7wzRC1bH5YTmGmZWL-11" value="&lt;font face=&quot;Times New Roman&quot;&gt;Статус&lt;/font&gt;" style="text;html=1;strokeColor=none;fillColor=none;align=center;verticalAlign=middle;whiteSpace=wrap;rounded=0;movable=1;resizable=1;rotatable=1;deletable=1;editable=1;locked=0;connectable=1;" parent="1" vertex="1">
          <mxGeometry x="505" y="210" width="70" height="30" as="geometry" />
        </mxCell>
      </root>
    </mxGraphModel>
  </diagram>
  <diagram id="WJ_cxe6x_YXA9jYFeaaU" name="Project details">
    <mxGraphModel dx="1418" dy="828" grid="1" gridSize="10" guides="1" tooltips="1" connect="1" arrows="1" fold="1" page="1" pageScale="1" pageWidth="827" pageHeight="1169" math="0" shadow="0">
      <root>
        <mxCell id="0" />
        <mxCell id="1" parent="0" />
        <mxCell id="7Xv8kAJrKxIeEgm71Vfs-1" value="Пример" style="strokeWidth=1;shadow=0;dashed=0;align=center;html=1;shape=mxgraph.mockup.containers.window;align=left;verticalAlign=top;spacingLeft=8;strokeColor2=#008cff;strokeColor3=#c4c4c4;fontColor=#666666;mainText=;fontSize=17;labelBackgroundColor=none;whiteSpace=wrap;" vertex="1" parent="1">
          <mxGeometry width="820" height="380" as="geometry" />
        </mxCell>
        <mxCell id="K7BYzkR6KYvUp_-vjZ2B-1" value="&lt;font face=&quot;Times New Roman&quot; style=&quot;font-size: 24px;&quot;&gt;Название проекта&lt;/font&gt;" style="text;html=1;strokeColor=none;fillColor=none;align=left;verticalAlign=middle;whiteSpace=wrap;rounded=0;fontSize=24;" parent="1" vertex="1">
          <mxGeometry x="80" y="50" width="194" height="30" as="geometry" />
        </mxCell>
        <mxCell id="_a7tyg3w_97XcT5o7c1h-1" value="&lt;div style=&quot;&quot;&gt;&lt;font face=&quot;Times New Roman&quot;&gt;&lt;span style=&quot;font-size: 20px;&quot;&gt;Описание проекта&lt;/span&gt;&lt;/font&gt;&lt;/div&gt;" style="text;html=1;strokeColor=none;fillColor=none;align=left;verticalAlign=middle;whiteSpace=wrap;rounded=0;" parent="1" vertex="1">
          <mxGeometry x="80" y="80" width="680" height="80" as="geometry" />
        </mxCell>
        <mxCell id="_a7tyg3w_97XcT5o7c1h-4" value="" style="verticalLabelPosition=bottom;verticalAlign=top;html=1;shadow=0;dashed=0;strokeWidth=3;shape=mxgraph.android.progressBar;strokeColor=#001DBC;dx1=0.8;dx2=0.6;strokeWidth=2;fillColor=#0050ef;fontColor=#ffffff;" parent="1" vertex="1">
          <mxGeometry x="80" y="130" width="680" height="85" as="geometry" />
        </mxCell>
        <mxCell id="_a7tyg3w_97XcT5o7c1h-9" value="" style="childLayout=tableLayout;recursiveResize=0;shadow=0;fillColor=none;fontSize=16;" parent="1" vertex="1">
          <mxGeometry x="90" y="210" width="670" height="40" as="geometry" />
        </mxCell>
        <mxCell id="_a7tyg3w_97XcT5o7c1h-10" value="" style="shape=tableRow;horizontal=0;startSize=0;swimlaneHead=0;swimlaneBody=0;top=0;left=0;bottom=0;right=0;dropTarget=0;collapsible=0;recursiveResize=0;expand=0;fontStyle=0;fillColor=none;strokeColor=inherit;" parent="_a7tyg3w_97XcT5o7c1h-9" vertex="1">
          <mxGeometry width="670" height="40" as="geometry" />
        </mxCell>
        <mxCell id="_a7tyg3w_97XcT5o7c1h-11" value="&lt;font face=&quot;Times New Roman&quot; style=&quot;font-size: 20px;&quot;&gt;Название задачи&lt;/font&gt;" style="connectable=0;recursiveResize=0;strokeColor=inherit;fillColor=none;align=center;whiteSpace=wrap;html=1;" parent="_a7tyg3w_97XcT5o7c1h-10" vertex="1">
          <mxGeometry width="223" height="40" as="geometry">
            <mxRectangle width="223" height="40" as="alternateBounds" />
          </mxGeometry>
        </mxCell>
        <mxCell id="_a7tyg3w_97XcT5o7c1h-12" value="&lt;font face=&quot;Times New Roman&quot; style=&quot;font-size: 20px;&quot;&gt;Статус&lt;/font&gt;" style="connectable=0;recursiveResize=0;strokeColor=inherit;fillColor=none;align=center;whiteSpace=wrap;html=1;" parent="_a7tyg3w_97XcT5o7c1h-10" vertex="1">
          <mxGeometry x="223" width="224" height="40" as="geometry">
            <mxRectangle width="224" height="40" as="alternateBounds" />
          </mxGeometry>
        </mxCell>
        <mxCell id="_a7tyg3w_97XcT5o7c1h-13" value="&lt;font face=&quot;Times New Roman&quot; style=&quot;font-size: 20px;&quot;&gt;Действия&lt;/font&gt;" style="connectable=0;recursiveResize=0;strokeColor=inherit;fillColor=none;align=center;whiteSpace=wrap;html=1;" parent="_a7tyg3w_97XcT5o7c1h-10" vertex="1">
          <mxGeometry x="447" width="223" height="40" as="geometry">
            <mxRectangle width="223" height="40" as="alternateBounds" />
          </mxGeometry>
        </mxCell>
        <mxCell id="_a7tyg3w_97XcT5o7c1h-22" value="&lt;font style=&quot;font-size: 20px;&quot; face=&quot;Times New Roman&quot;&gt;Добавить задачу&lt;/font&gt;" style="rounded=1;fillColor=#0050ef;strokeColor=#001DBC;html=1;whiteSpace=wrap;fontColor=#ffffff;align=center;verticalAlign=middle;fontStyle=0;fontSize=12;sketch=0;" parent="1" vertex="1">
          <mxGeometry x="90" y="280" width="190" height="40" as="geometry" />
        </mxCell>
      </root>
    </mxGraphModel>
  </diagram>
  <diagram id="dyoqzepSasdzcmo3e-On" name="New project">
    <mxGraphModel dx="1668" dy="974" grid="1" gridSize="10" guides="1" tooltips="1" connect="1" arrows="1" fold="1" page="1" pageScale="1" pageWidth="827" pageHeight="1169" math="0" shadow="0">
      <root>
        <mxCell id="0" />
        <mxCell id="1" parent="0" />
        <mxCell id="LKeLojImyyWrdMeQenY7-2" value="Пример" style="strokeWidth=1;shadow=0;dashed=0;align=center;html=1;shape=mxgraph.mockup.containers.window;align=left;verticalAlign=top;spacingLeft=8;strokeColor2=#008cff;strokeColor3=#c4c4c4;fontColor=#666666;mainText=;fontSize=17;labelBackgroundColor=none;whiteSpace=wrap;" vertex="1" parent="1">
          <mxGeometry width="820" height="580" as="geometry" />
        </mxCell>
        <mxCell id="KGRQKXjGa1Fk5MchU_OR-1" value="&lt;font face=&quot;Times New Roman&quot; style=&quot;font-size: 24px;&quot;&gt;Название проекта&lt;/font&gt;" style="text;html=1;strokeColor=none;fillColor=none;align=left;verticalAlign=middle;whiteSpace=wrap;rounded=0;fontSize=24;" parent="1" vertex="1">
          <mxGeometry x="80" y="50" width="200" height="30" as="geometry" />
        </mxCell>
        <mxCell id="KGRQKXjGa1Fk5MchU_OR-2" value="&lt;div style=&quot;&quot;&gt;&lt;font face=&quot;Times New Roman&quot;&gt;&lt;span style=&quot;font-size: 20px;&quot;&gt;Описание проекта&lt;/span&gt;&lt;/font&gt;&lt;/div&gt;" style="text;html=1;strokeColor=none;fillColor=none;align=left;verticalAlign=middle;whiteSpace=wrap;rounded=0;" parent="1" vertex="1">
          <mxGeometry x="80" y="80" width="680" height="80" as="geometry" />
        </mxCell>
        <mxCell id="KGRQKXjGa1Fk5MchU_OR-10" value="" style="strokeWidth=1;shadow=0;dashed=0;align=center;html=1;shape=mxgraph.mockup.forms.rrect;rSize=5;strokeColor=#999999;fillColor=#ffffff;" parent="1" vertex="1">
          <mxGeometry x="80" y="226" width="280" height="250" as="geometry" />
        </mxCell>
        <mxCell id="KGRQKXjGa1Fk5MchU_OR-11" value="October 2014" style="strokeWidth=1;shadow=0;dashed=0;align=center;html=1;shape=mxgraph.mockup.forms.anchor;fontColor=#999999;" parent="KGRQKXjGa1Fk5MchU_OR-10" vertex="1">
          <mxGeometry x="52.5" y="11.428571428571429" width="175" height="28.571428571428577" as="geometry" />
        </mxCell>
        <mxCell id="KGRQKXjGa1Fk5MchU_OR-12" value="&lt;" style="strokeWidth=1;shadow=0;dashed=0;align=center;html=1;shape=mxgraph.mockup.forms.rrect;rSize=4;strokeColor=#999999;fontColor=#008cff;fontSize=19;fontStyle=1;" parent="KGRQKXjGa1Fk5MchU_OR-10" vertex="1">
          <mxGeometry x="14" y="11.428571428571429" width="43.75" height="28.571428571428577" as="geometry" />
        </mxCell>
        <mxCell id="KGRQKXjGa1Fk5MchU_OR-13" value="&gt;" style="strokeWidth=1;shadow=0;dashed=0;align=center;html=1;shape=mxgraph.mockup.forms.rrect;rSize=4;strokeColor=#999999;fontColor=#008cff;fontSize=19;fontStyle=1;" parent="KGRQKXjGa1Fk5MchU_OR-10" vertex="1">
          <mxGeometry x="222.25" y="11.428571428571429" width="43.75" height="28.571428571428577" as="geometry" />
        </mxCell>
        <mxCell id="KGRQKXjGa1Fk5MchU_OR-14" value="Mo" style="strokeWidth=1;shadow=0;dashed=0;align=center;html=1;shape=mxgraph.mockup.forms.anchor;fontColor=#999999;" parent="KGRQKXjGa1Fk5MchU_OR-10" vertex="1">
          <mxGeometry x="17.5" y="40" width="35" height="28.571428571428577" as="geometry" />
        </mxCell>
        <mxCell id="KGRQKXjGa1Fk5MchU_OR-15" value="Tu" style="strokeWidth=1;shadow=0;dashed=0;align=center;html=1;shape=mxgraph.mockup.forms.anchor;fontColor=#999999;" parent="KGRQKXjGa1Fk5MchU_OR-10" vertex="1">
          <mxGeometry x="52.5" y="40" width="35" height="28.571428571428577" as="geometry" />
        </mxCell>
        <mxCell id="KGRQKXjGa1Fk5MchU_OR-16" value="We" style="strokeWidth=1;shadow=0;dashed=0;align=center;html=1;shape=mxgraph.mockup.forms.anchor;fontColor=#999999;" parent="KGRQKXjGa1Fk5MchU_OR-10" vertex="1">
          <mxGeometry x="87.5" y="40" width="35" height="28.571428571428577" as="geometry" />
        </mxCell>
        <mxCell id="KGRQKXjGa1Fk5MchU_OR-17" value="Th" style="strokeWidth=1;shadow=0;dashed=0;align=center;html=1;shape=mxgraph.mockup.forms.anchor;fontColor=#999999;" parent="KGRQKXjGa1Fk5MchU_OR-10" vertex="1">
          <mxGeometry x="122.5" y="40" width="35" height="28.571428571428577" as="geometry" />
        </mxCell>
        <mxCell id="KGRQKXjGa1Fk5MchU_OR-18" value="Fr" style="strokeWidth=1;shadow=0;dashed=0;align=center;html=1;shape=mxgraph.mockup.forms.anchor;fontColor=#999999;" parent="KGRQKXjGa1Fk5MchU_OR-10" vertex="1">
          <mxGeometry x="157.5" y="40" width="35" height="28.571428571428577" as="geometry" />
        </mxCell>
        <mxCell id="KGRQKXjGa1Fk5MchU_OR-19" value="Sa" style="strokeWidth=1;shadow=0;dashed=0;align=center;html=1;shape=mxgraph.mockup.forms.anchor;fontColor=#999999;" parent="KGRQKXjGa1Fk5MchU_OR-10" vertex="1">
          <mxGeometry x="192.5" y="40" width="35" height="28.571428571428577" as="geometry" />
        </mxCell>
        <mxCell id="KGRQKXjGa1Fk5MchU_OR-20" value="Su" style="strokeWidth=1;shadow=0;dashed=0;align=center;html=1;shape=mxgraph.mockup.forms.anchor;fontColor=#999999;" parent="KGRQKXjGa1Fk5MchU_OR-10" vertex="1">
          <mxGeometry x="227.5" y="40" width="35" height="28.571428571428577" as="geometry" />
        </mxCell>
        <mxCell id="KGRQKXjGa1Fk5MchU_OR-21" value="1" style="strokeWidth=1;shadow=0;dashed=0;align=center;html=1;shape=mxgraph.mockup.forms.rrect;rSize=0;strokeColor=#999999;fontColor=#999999;" parent="KGRQKXjGa1Fk5MchU_OR-10" vertex="1">
          <mxGeometry x="17.5" y="68.57142857142857" width="35" height="28.571428571428577" as="geometry" />
        </mxCell>
        <mxCell id="KGRQKXjGa1Fk5MchU_OR-22" value="2" style="strokeWidth=1;shadow=0;dashed=0;align=center;html=1;shape=mxgraph.mockup.forms.rrect;rSize=0;strokeColor=#999999;fontColor=#999999;" parent="KGRQKXjGa1Fk5MchU_OR-10" vertex="1">
          <mxGeometry x="52.5" y="68.57142857142857" width="35" height="28.571428571428577" as="geometry" />
        </mxCell>
        <mxCell id="KGRQKXjGa1Fk5MchU_OR-23" value="3" style="strokeWidth=1;shadow=0;dashed=0;align=center;html=1;shape=mxgraph.mockup.forms.rrect;rSize=0;strokeColor=#999999;fontColor=#999999;" parent="KGRQKXjGa1Fk5MchU_OR-10" vertex="1">
          <mxGeometry x="87.5" y="68.57142857142857" width="35" height="28.571428571428577" as="geometry" />
        </mxCell>
        <mxCell id="KGRQKXjGa1Fk5MchU_OR-24" value="4" style="strokeWidth=1;shadow=0;dashed=0;align=center;html=1;shape=mxgraph.mockup.forms.rrect;rSize=0;strokeColor=#999999;fontColor=#999999;" parent="KGRQKXjGa1Fk5MchU_OR-10" vertex="1">
          <mxGeometry x="122.5" y="68.57142857142857" width="35" height="28.571428571428577" as="geometry" />
        </mxCell>
        <mxCell id="KGRQKXjGa1Fk5MchU_OR-25" value="5" style="strokeWidth=1;shadow=0;dashed=0;align=center;html=1;shape=mxgraph.mockup.forms.rrect;rSize=0;strokeColor=#999999;fontColor=#999999;" parent="KGRQKXjGa1Fk5MchU_OR-10" vertex="1">
          <mxGeometry x="157.5" y="68.57142857142857" width="35" height="28.571428571428577" as="geometry" />
        </mxCell>
        <mxCell id="KGRQKXjGa1Fk5MchU_OR-26" value="6" style="strokeWidth=1;shadow=0;dashed=0;align=center;html=1;shape=mxgraph.mockup.forms.rrect;rSize=0;strokeColor=#999999;fontColor=#999999;" parent="KGRQKXjGa1Fk5MchU_OR-10" vertex="1">
          <mxGeometry x="192.5" y="68.57142857142857" width="35" height="28.571428571428577" as="geometry" />
        </mxCell>
        <mxCell id="KGRQKXjGa1Fk5MchU_OR-27" value="7" style="strokeWidth=1;shadow=0;dashed=0;align=center;html=1;shape=mxgraph.mockup.forms.rrect;rSize=0;strokeColor=#999999;fontColor=#999999;" parent="KGRQKXjGa1Fk5MchU_OR-10" vertex="1">
          <mxGeometry x="227.5" y="68.57142857142857" width="35" height="28.571428571428577" as="geometry" />
        </mxCell>
        <mxCell id="KGRQKXjGa1Fk5MchU_OR-28" value="8" style="strokeWidth=1;shadow=0;dashed=0;align=center;html=1;shape=mxgraph.mockup.forms.rrect;rSize=0;strokeColor=#999999;fontColor=#999999;" parent="KGRQKXjGa1Fk5MchU_OR-10" vertex="1">
          <mxGeometry x="17.5" y="97.14285714285714" width="35" height="28.571428571428577" as="geometry" />
        </mxCell>
        <mxCell id="KGRQKXjGa1Fk5MchU_OR-29" value="9" style="strokeWidth=1;shadow=0;dashed=0;align=center;html=1;shape=mxgraph.mockup.forms.rrect;rSize=0;strokeColor=#999999;fontColor=#999999;" parent="KGRQKXjGa1Fk5MchU_OR-10" vertex="1">
          <mxGeometry x="52.5" y="97.14285714285714" width="35" height="28.571428571428577" as="geometry" />
        </mxCell>
        <mxCell id="KGRQKXjGa1Fk5MchU_OR-30" value="10" style="strokeWidth=1;shadow=0;dashed=0;align=center;html=1;shape=mxgraph.mockup.forms.rrect;rSize=0;strokeColor=#999999;fontColor=#999999;" parent="KGRQKXjGa1Fk5MchU_OR-10" vertex="1">
          <mxGeometry x="87.5" y="97.14285714285714" width="35" height="28.571428571428577" as="geometry" />
        </mxCell>
        <mxCell id="KGRQKXjGa1Fk5MchU_OR-31" value="11" style="strokeWidth=1;shadow=0;dashed=0;align=center;html=1;shape=mxgraph.mockup.forms.rrect;rSize=0;strokeColor=#999999;fontColor=#999999;" parent="KGRQKXjGa1Fk5MchU_OR-10" vertex="1">
          <mxGeometry x="122.5" y="97.14285714285714" width="35" height="28.571428571428577" as="geometry" />
        </mxCell>
        <mxCell id="KGRQKXjGa1Fk5MchU_OR-32" value="12" style="strokeWidth=1;shadow=0;dashed=0;align=center;html=1;shape=mxgraph.mockup.forms.rrect;rSize=0;strokeColor=#999999;fontColor=#999999;" parent="KGRQKXjGa1Fk5MchU_OR-10" vertex="1">
          <mxGeometry x="157.5" y="97.14285714285714" width="35" height="28.571428571428577" as="geometry" />
        </mxCell>
        <mxCell id="KGRQKXjGa1Fk5MchU_OR-33" value="13" style="strokeWidth=1;shadow=0;dashed=0;align=center;html=1;shape=mxgraph.mockup.forms.rrect;rSize=0;strokeColor=#999999;fontColor=#999999;" parent="KGRQKXjGa1Fk5MchU_OR-10" vertex="1">
          <mxGeometry x="192.5" y="97.14285714285714" width="35" height="28.571428571428577" as="geometry" />
        </mxCell>
        <mxCell id="KGRQKXjGa1Fk5MchU_OR-34" value="14" style="strokeWidth=1;shadow=0;dashed=0;align=center;html=1;shape=mxgraph.mockup.forms.rrect;rSize=0;strokeColor=#999999;fontColor=#999999;" parent="KGRQKXjGa1Fk5MchU_OR-10" vertex="1">
          <mxGeometry x="227.5" y="97.14285714285714" width="35" height="28.571428571428577" as="geometry" />
        </mxCell>
        <mxCell id="KGRQKXjGa1Fk5MchU_OR-35" value="15" style="strokeWidth=1;shadow=0;dashed=0;align=center;html=1;shape=mxgraph.mockup.forms.rrect;rSize=0;strokeColor=#999999;fontColor=#999999;" parent="KGRQKXjGa1Fk5MchU_OR-10" vertex="1">
          <mxGeometry x="17.5" y="125.71428571428572" width="35" height="28.571428571428577" as="geometry" />
        </mxCell>
        <mxCell id="KGRQKXjGa1Fk5MchU_OR-36" value="16" style="strokeWidth=1;shadow=0;dashed=0;align=center;html=1;shape=mxgraph.mockup.forms.rrect;rSize=0;strokeColor=#999999;fontColor=#999999;" parent="KGRQKXjGa1Fk5MchU_OR-10" vertex="1">
          <mxGeometry x="52.5" y="125.71428571428572" width="35" height="28.571428571428577" as="geometry" />
        </mxCell>
        <mxCell id="KGRQKXjGa1Fk5MchU_OR-37" value="17" style="strokeWidth=1;shadow=0;dashed=0;align=center;html=1;shape=mxgraph.mockup.forms.rrect;rSize=0;strokeColor=#999999;fontColor=#999999;" parent="KGRQKXjGa1Fk5MchU_OR-10" vertex="1">
          <mxGeometry x="87.5" y="125.71428571428572" width="35" height="28.571428571428577" as="geometry" />
        </mxCell>
        <mxCell id="KGRQKXjGa1Fk5MchU_OR-38" value="18" style="strokeWidth=1;shadow=0;dashed=0;align=center;html=1;shape=mxgraph.mockup.forms.rrect;rSize=0;strokeColor=#999999;fontColor=#999999;" parent="KGRQKXjGa1Fk5MchU_OR-10" vertex="1">
          <mxGeometry x="122.5" y="125.71428571428572" width="35" height="28.571428571428577" as="geometry" />
        </mxCell>
        <mxCell id="KGRQKXjGa1Fk5MchU_OR-39" value="19" style="strokeWidth=1;shadow=0;dashed=0;align=center;html=1;shape=mxgraph.mockup.forms.rrect;rSize=0;strokeColor=#999999;fontColor=#999999;" parent="KGRQKXjGa1Fk5MchU_OR-10" vertex="1">
          <mxGeometry x="157.5" y="125.71428571428572" width="35" height="28.571428571428577" as="geometry" />
        </mxCell>
        <mxCell id="KGRQKXjGa1Fk5MchU_OR-40" value="20" style="strokeWidth=1;shadow=0;dashed=0;align=center;html=1;shape=mxgraph.mockup.forms.rrect;rSize=0;strokeColor=#999999;fontColor=#999999;" parent="KGRQKXjGa1Fk5MchU_OR-10" vertex="1">
          <mxGeometry x="192.5" y="125.71428571428572" width="35" height="28.571428571428577" as="geometry" />
        </mxCell>
        <mxCell id="KGRQKXjGa1Fk5MchU_OR-41" value="21" style="strokeWidth=1;shadow=0;dashed=0;align=center;html=1;shape=mxgraph.mockup.forms.rrect;rSize=0;strokeColor=#999999;fontColor=#999999;" parent="KGRQKXjGa1Fk5MchU_OR-10" vertex="1">
          <mxGeometry x="227.5" y="125.71428571428572" width="35" height="28.571428571428577" as="geometry" />
        </mxCell>
        <mxCell id="KGRQKXjGa1Fk5MchU_OR-42" value="22" style="strokeWidth=1;shadow=0;dashed=0;align=center;html=1;shape=mxgraph.mockup.forms.rrect;rSize=0;strokeColor=#999999;fontColor=#999999;" parent="KGRQKXjGa1Fk5MchU_OR-10" vertex="1">
          <mxGeometry x="17.5" y="154.2857142857143" width="35" height="28.571428571428577" as="geometry" />
        </mxCell>
        <mxCell id="KGRQKXjGa1Fk5MchU_OR-43" value="23" style="strokeWidth=1;shadow=0;dashed=0;align=center;html=1;shape=mxgraph.mockup.forms.rrect;rSize=0;strokeColor=#999999;fontColor=#999999;" parent="KGRQKXjGa1Fk5MchU_OR-10" vertex="1">
          <mxGeometry x="52.5" y="154.2857142857143" width="35" height="28.571428571428577" as="geometry" />
        </mxCell>
        <mxCell id="KGRQKXjGa1Fk5MchU_OR-44" value="25" style="strokeWidth=1;shadow=0;dashed=0;align=center;html=1;shape=mxgraph.mockup.forms.rrect;rSize=0;strokeColor=#999999;fontColor=#999999;" parent="KGRQKXjGa1Fk5MchU_OR-10" vertex="1">
          <mxGeometry x="122.5" y="154.2857142857143" width="35" height="28.571428571428577" as="geometry" />
        </mxCell>
        <mxCell id="KGRQKXjGa1Fk5MchU_OR-45" value="26" style="strokeWidth=1;shadow=0;dashed=0;align=center;html=1;shape=mxgraph.mockup.forms.rrect;rSize=0;strokeColor=#999999;fontColor=#999999;" parent="KGRQKXjGa1Fk5MchU_OR-10" vertex="1">
          <mxGeometry x="157.5" y="154.2857142857143" width="35" height="28.571428571428577" as="geometry" />
        </mxCell>
        <mxCell id="KGRQKXjGa1Fk5MchU_OR-46" value="27" style="strokeWidth=1;shadow=0;dashed=0;align=center;html=1;shape=mxgraph.mockup.forms.rrect;rSize=0;strokeColor=#999999;fontColor=#999999;" parent="KGRQKXjGa1Fk5MchU_OR-10" vertex="1">
          <mxGeometry x="192.5" y="154.2857142857143" width="35" height="28.571428571428577" as="geometry" />
        </mxCell>
        <mxCell id="KGRQKXjGa1Fk5MchU_OR-47" value="28" style="strokeWidth=1;shadow=0;dashed=0;align=center;html=1;shape=mxgraph.mockup.forms.rrect;rSize=0;strokeColor=#999999;fontColor=#999999;" parent="KGRQKXjGa1Fk5MchU_OR-10" vertex="1">
          <mxGeometry x="227.5" y="154.2857142857143" width="35" height="28.571428571428577" as="geometry" />
        </mxCell>
        <mxCell id="KGRQKXjGa1Fk5MchU_OR-48" value="29" style="strokeWidth=1;shadow=0;dashed=0;align=center;html=1;shape=mxgraph.mockup.forms.rrect;rSize=0;strokeColor=#999999;fontColor=#999999;" parent="KGRQKXjGa1Fk5MchU_OR-10" vertex="1">
          <mxGeometry x="17.5" y="182.85714285714286" width="35" height="28.571428571428577" as="geometry" />
        </mxCell>
        <mxCell id="KGRQKXjGa1Fk5MchU_OR-49" value="30" style="strokeWidth=1;shadow=0;dashed=0;align=center;html=1;shape=mxgraph.mockup.forms.rrect;rSize=0;strokeColor=#999999;fontColor=#999999;" parent="KGRQKXjGa1Fk5MchU_OR-10" vertex="1">
          <mxGeometry x="52.5" y="182.85714285714286" width="35" height="28.571428571428577" as="geometry" />
        </mxCell>
        <mxCell id="KGRQKXjGa1Fk5MchU_OR-50" value="31" style="strokeWidth=1;shadow=0;dashed=0;align=center;html=1;shape=mxgraph.mockup.forms.rrect;rSize=0;strokeColor=#999999;fontColor=#999999;" parent="KGRQKXjGa1Fk5MchU_OR-10" vertex="1">
          <mxGeometry x="87.5" y="182.85714285714286" width="35" height="28.571428571428577" as="geometry" />
        </mxCell>
        <mxCell id="KGRQKXjGa1Fk5MchU_OR-51" value="1" style="strokeWidth=1;shadow=0;dashed=0;align=center;html=1;shape=mxgraph.mockup.forms.rrect;rSize=0;strokeColor=#999999;fontColor=#999999;fillColor=#ddeeff;" parent="KGRQKXjGa1Fk5MchU_OR-10" vertex="1">
          <mxGeometry x="122.5" y="182.85714285714286" width="35" height="28.571428571428577" as="geometry" />
        </mxCell>
        <mxCell id="KGRQKXjGa1Fk5MchU_OR-52" value="2" style="strokeWidth=1;shadow=0;dashed=0;align=center;html=1;shape=mxgraph.mockup.forms.rrect;rSize=0;strokeColor=#999999;fontColor=#999999;fillColor=#ddeeff;" parent="KGRQKXjGa1Fk5MchU_OR-10" vertex="1">
          <mxGeometry x="157.5" y="182.85714285714286" width="35" height="28.571428571428577" as="geometry" />
        </mxCell>
        <mxCell id="KGRQKXjGa1Fk5MchU_OR-53" value="3" style="strokeWidth=1;shadow=0;dashed=0;align=center;html=1;shape=mxgraph.mockup.forms.rrect;rSize=0;strokeColor=#999999;fontColor=#999999;fillColor=#ddeeff;" parent="KGRQKXjGa1Fk5MchU_OR-10" vertex="1">
          <mxGeometry x="192.5" y="182.85714285714286" width="35" height="28.571428571428577" as="geometry" />
        </mxCell>
        <mxCell id="KGRQKXjGa1Fk5MchU_OR-54" value="4" style="strokeWidth=1;shadow=0;dashed=0;align=center;html=1;shape=mxgraph.mockup.forms.rrect;rSize=0;strokeColor=#999999;fontColor=#999999;fillColor=#ddeeff;" parent="KGRQKXjGa1Fk5MchU_OR-10" vertex="1">
          <mxGeometry x="227.5" y="182.85714285714286" width="35" height="28.571428571428577" as="geometry" />
        </mxCell>
        <mxCell id="KGRQKXjGa1Fk5MchU_OR-55" value="5" style="strokeWidth=1;shadow=0;dashed=0;align=center;html=1;shape=mxgraph.mockup.forms.rrect;rSize=0;strokeColor=#999999;fontColor=#999999;fillColor=#ddeeff;" parent="KGRQKXjGa1Fk5MchU_OR-10" vertex="1">
          <mxGeometry x="17.5" y="211.42857142857144" width="35" height="28.571428571428577" as="geometry" />
        </mxCell>
        <mxCell id="KGRQKXjGa1Fk5MchU_OR-56" value="6" style="strokeWidth=1;shadow=0;dashed=0;align=center;html=1;shape=mxgraph.mockup.forms.rrect;rSize=0;strokeColor=#999999;fontColor=#999999;fillColor=#ddeeff;" parent="KGRQKXjGa1Fk5MchU_OR-10" vertex="1">
          <mxGeometry x="52.5" y="211.42857142857144" width="35" height="28.571428571428577" as="geometry" />
        </mxCell>
        <mxCell id="KGRQKXjGa1Fk5MchU_OR-57" value="7" style="strokeWidth=1;shadow=0;dashed=0;align=center;html=1;shape=mxgraph.mockup.forms.rrect;rSize=0;strokeColor=#999999;fontColor=#999999;fillColor=#ddeeff;" parent="KGRQKXjGa1Fk5MchU_OR-10" vertex="1">
          <mxGeometry x="87.5" y="211.42857142857144" width="35" height="28.571428571428577" as="geometry" />
        </mxCell>
        <mxCell id="KGRQKXjGa1Fk5MchU_OR-58" value="8" style="strokeWidth=1;shadow=0;dashed=0;align=center;html=1;shape=mxgraph.mockup.forms.rrect;rSize=0;strokeColor=#999999;fontColor=#999999;fillColor=#ddeeff;" parent="KGRQKXjGa1Fk5MchU_OR-10" vertex="1">
          <mxGeometry x="122.5" y="211.42857142857144" width="35" height="28.571428571428577" as="geometry" />
        </mxCell>
        <mxCell id="KGRQKXjGa1Fk5MchU_OR-59" value="9" style="strokeWidth=1;shadow=0;dashed=0;align=center;html=1;shape=mxgraph.mockup.forms.rrect;rSize=0;strokeColor=#999999;fontColor=#999999;fillColor=#ddeeff;" parent="KGRQKXjGa1Fk5MchU_OR-10" vertex="1">
          <mxGeometry x="157.5" y="211.42857142857144" width="35" height="28.571428571428577" as="geometry" />
        </mxCell>
        <mxCell id="KGRQKXjGa1Fk5MchU_OR-60" value="10" style="strokeWidth=1;shadow=0;dashed=0;align=center;html=1;shape=mxgraph.mockup.forms.rrect;rSize=0;strokeColor=#999999;fontColor=#999999;fillColor=#ddeeff;" parent="KGRQKXjGa1Fk5MchU_OR-10" vertex="1">
          <mxGeometry x="192.5" y="211.42857142857144" width="35" height="28.571428571428577" as="geometry" />
        </mxCell>
        <mxCell id="KGRQKXjGa1Fk5MchU_OR-61" value="11" style="strokeWidth=1;shadow=0;dashed=0;align=center;html=1;shape=mxgraph.mockup.forms.rrect;rSize=0;strokeColor=#999999;fontColor=#999999;fillColor=#ddeeff;" parent="KGRQKXjGa1Fk5MchU_OR-10" vertex="1">
          <mxGeometry x="227.5" y="211.42857142857144" width="35" height="28.571428571428577" as="geometry" />
        </mxCell>
        <mxCell id="KGRQKXjGa1Fk5MchU_OR-62" value="24" style="strokeWidth=1;shadow=0;dashed=0;align=center;html=1;shape=mxgraph.mockup.forms.rrect;rSize=0;strokeColor=#ff0000;fontColor=#ffffff;strokeWidth=2;fillColor=#008cff;" parent="KGRQKXjGa1Fk5MchU_OR-10" vertex="1">
          <mxGeometry x="87.5" y="154.2857142857143" width="35" height="28.571428571428577" as="geometry" />
        </mxCell>
        <mxCell id="KGRQKXjGa1Fk5MchU_OR-63" value="&lt;div style=&quot;&quot;&gt;&lt;font face=&quot;Times New Roman&quot;&gt;&lt;span style=&quot;font-size: 20px;&quot;&gt;Введите дату начала&amp;nbsp;&amp;nbsp;&lt;/span&gt;&lt;/font&gt;&lt;/div&gt;&lt;div style=&quot;&quot;&gt;&lt;font face=&quot;Times New Roman&quot;&gt;&lt;span style=&quot;font-size: 20px;&quot;&gt;и окончания проекта:&lt;/span&gt;&lt;/font&gt;&lt;/div&gt;" style="text;html=1;strokeColor=none;fillColor=none;align=left;verticalAlign=middle;whiteSpace=wrap;rounded=0;" parent="1" vertex="1">
          <mxGeometry x="77" y="150" width="286" height="60" as="geometry" />
        </mxCell>
        <mxCell id="KGRQKXjGa1Fk5MchU_OR-64" value="&lt;div style=&quot;&quot;&gt;&lt;font face=&quot;Times New Roman&quot;&gt;&lt;span style=&quot;font-size: 20px;&quot;&gt;Выберите участников проекта:&lt;/span&gt;&lt;/font&gt;&lt;/div&gt;" style="text;html=1;strokeColor=none;fillColor=none;align=left;verticalAlign=middle;whiteSpace=wrap;rounded=0;" parent="1" vertex="1">
          <mxGeometry x="420" y="161" width="340" height="40" as="geometry" />
        </mxCell>
        <mxCell id="-yLmPmdMOl6yn_VZ_kWU-1" value="&lt;font face=&quot;Times New Roman&quot;&gt;&lt;span style=&quot;font-size: 20px;&quot;&gt;Сохранить прект&lt;/span&gt;&lt;/font&gt;" style="rounded=1;fillColor=#0050ef;strokeColor=#001DBC;html=1;whiteSpace=wrap;fontColor=#ffffff;align=center;verticalAlign=middle;fontStyle=0;fontSize=12;sketch=0;" parent="1" vertex="1">
          <mxGeometry x="77" y="510" width="190" height="40" as="geometry" />
        </mxCell>
        <mxCell id="-yLmPmdMOl6yn_VZ_kWU-10" value="" style="html=1;shadow=0;dashed=0;shape=mxgraph.bootstrap.rrect;rSize=5;strokeColor=#DFDFDF;html=1;whiteSpace=wrap;fillColor=#FFFFFF;fontColor=#000000;fontFamily=Times New Roman;" parent="1" vertex="1">
          <mxGeometry x="420" y="224" width="340" height="152" as="geometry" />
        </mxCell>
        <mxCell id="-yLmPmdMOl6yn_VZ_kWU-11" value="&lt;font style=&quot;font-size: 20px;&quot; face=&quot;Times New Roman&quot;&gt;Список участников:&lt;/font&gt;" style="strokeColor=inherit;fillColor=inherit;gradientColor=inherit;fontColor=inherit;html=1;shadow=0;dashed=0;shape=mxgraph.bootstrap.topButton;rSize=5;perimeter=none;whiteSpace=wrap;resizeWidth=1;align=left;spacing=10;" parent="-yLmPmdMOl6yn_VZ_kWU-10" vertex="1">
          <mxGeometry width="340" height="30" relative="1" as="geometry" />
        </mxCell>
        <mxCell id="-yLmPmdMOl6yn_VZ_kWU-12" value="Имя Фамилия" style="strokeColor=inherit;fillColor=inherit;gradientColor=inherit;fontColor=inherit;html=1;shadow=0;dashed=0;perimeter=none;whiteSpace=wrap;resizeWidth=1;align=left;spacing=10;fontFamily=Times New Roman;fontSize=16;" parent="-yLmPmdMOl6yn_VZ_kWU-10" vertex="1">
          <mxGeometry width="340" height="30" relative="1" as="geometry">
            <mxPoint y="30" as="offset" />
          </mxGeometry>
        </mxCell>
        <mxCell id="-yLmPmdMOl6yn_VZ_kWU-13" value="Имя Фамилия" style="strokeColor=inherit;fillColor=inherit;gradientColor=inherit;fontColor=inherit;html=1;shadow=0;dashed=0;perimeter=none;whiteSpace=wrap;resizeWidth=1;align=left;spacing=10;fontFamily=Times New Roman;fontSize=16;" parent="-yLmPmdMOl6yn_VZ_kWU-10" vertex="1">
          <mxGeometry width="340" height="30" relative="1" as="geometry">
            <mxPoint y="60" as="offset" />
          </mxGeometry>
        </mxCell>
        <mxCell id="-yLmPmdMOl6yn_VZ_kWU-15" value="Имя Фамилия" style="strokeColor=inherit;fillColor=inherit;gradientColor=inherit;fontColor=inherit;html=1;shadow=0;dashed=0;shape=mxgraph.bootstrap.bottomButton;rSize=5;perimeter=none;whiteSpace=wrap;resizeWidth=1;resizeHeight=0;align=left;spacing=10;fontFamily=Times New Roman;fontSize=16;" parent="-yLmPmdMOl6yn_VZ_kWU-10" vertex="1">
          <mxGeometry y="1" width="340" height="30" relative="1" as="geometry">
            <mxPoint y="-30" as="offset" />
          </mxGeometry>
        </mxCell>
        <mxCell id="bJC9f7GdhQS5VLz31HYy-1" value="Имя Фамилия" style="strokeColor=inherit;fillColor=inherit;gradientColor=inherit;fontColor=inherit;html=1;shadow=0;dashed=0;perimeter=none;whiteSpace=wrap;resizeWidth=1;align=left;spacing=10;fontFamily=Times New Roman;fontSize=16;" vertex="1" parent="-yLmPmdMOl6yn_VZ_kWU-10">
          <mxGeometry y="90" width="340" height="32.85" as="geometry" />
        </mxCell>
      </root>
    </mxGraphModel>
  </diagram>
  <diagram id="4z-JoLzEJmO3jOgCRMr_" name="User profile">
    <mxGraphModel dx="1418" dy="828" grid="1" gridSize="10" guides="1" tooltips="1" connect="1" arrows="1" fold="1" page="1" pageScale="1" pageWidth="827" pageHeight="1169" math="0" shadow="0">
      <root>
        <mxCell id="0" />
        <mxCell id="1" parent="0" />
        <mxCell id="MsFLfqIUSmzLXYbPUJu8-1" value="Пример" style="strokeWidth=1;shadow=0;dashed=0;align=center;html=1;shape=mxgraph.mockup.containers.window;align=left;verticalAlign=top;spacingLeft=8;strokeColor2=#008cff;strokeColor3=#c4c4c4;fontColor=#666666;mainText=;fontSize=17;labelBackgroundColor=none;whiteSpace=wrap;" vertex="1" parent="1">
          <mxGeometry width="820" height="600" as="geometry" />
        </mxCell>
        <mxCell id="1ZS0OiillxUmX5XdUdQ--1" value="&lt;font face=&quot;Times New Roman&quot;&gt;Имя пользователя&lt;/font&gt;" style="text;html=1;strokeColor=none;fillColor=none;align=left;verticalAlign=middle;whiteSpace=wrap;rounded=0;fontSize=24;" parent="1" vertex="1">
          <mxGeometry x="80" y="50" width="194" height="30" as="geometry" />
        </mxCell>
        <mxCell id="1ZS0OiillxUmX5XdUdQ--11" value="&lt;div style=&quot;&quot;&gt;&lt;font face=&quot;Times New Roman&quot;&gt;&lt;span style=&quot;font-size: 20px;&quot;&gt;Электронная почта&lt;/span&gt;&lt;/font&gt;&lt;/div&gt;" style="text;html=1;strokeColor=none;fillColor=none;align=left;verticalAlign=middle;whiteSpace=wrap;rounded=0;" parent="1" vertex="1">
          <mxGeometry x="80" y="89" width="680" height="40" as="geometry" />
        </mxCell>
        <mxCell id="rUfTX4VvsYq6Epmpw45s-5" value="Текущий пароль" style="fillColor=none;strokeColor=none;align=left;fontSize=20;fontFamily=Times New Roman;" parent="1" vertex="1">
          <mxGeometry x="80" y="130" width="260" height="40" as="geometry" />
        </mxCell>
        <mxCell id="rUfTX4VvsYq6Epmpw45s-6" value="" style="html=1;shadow=0;dashed=0;shape=mxgraph.bootstrap.rrect;rSize=5;fillColor=none;strokeColor=#999999;align=left;spacing=15;fontSize=14;fontColor=#6C767D;fontFamily=Times New Roman;" parent="1" vertex="1">
          <mxGeometry x="80" y="170" width="680" height="30" as="geometry" />
        </mxCell>
        <mxCell id="rUfTX4VvsYq6Epmpw45s-7" value="Новый пароль" style="fillColor=none;strokeColor=none;align=left;fontSize=20;fontFamily=Times New Roman;" parent="1" vertex="1">
          <mxGeometry x="80" y="200" width="260" height="40" as="geometry" />
        </mxCell>
        <mxCell id="rUfTX4VvsYq6Epmpw45s-8" value="" style="html=1;shadow=0;dashed=0;shape=mxgraph.bootstrap.rrect;rSize=5;fillColor=none;strokeColor=#999999;align=left;spacing=15;fontSize=14;fontColor=#6C767D;fontFamily=Times New Roman;" parent="1" vertex="1">
          <mxGeometry x="80" y="240" width="680" height="30" as="geometry" />
        </mxCell>
        <mxCell id="63zT1nHEPylesp3RLL4u-1" value="" style="html=1;shadow=0;dashed=0;shape=mxgraph.bootstrap.rrect;rSize=5;strokeColor=#DFDFDF;html=1;whiteSpace=wrap;fillColor=#FFFFFF;fontColor=#000000;fontFamily=Times New Roman;" parent="1" vertex="1">
          <mxGeometry x="80" y="300" width="680" height="150" as="geometry" />
        </mxCell>
        <mxCell id="63zT1nHEPylesp3RLL4u-2" value="&lt;font style=&quot;font-size: 20px;&quot; face=&quot;Times New Roman&quot;&gt;Выберите язык:&lt;/font&gt;" style="strokeColor=inherit;fillColor=inherit;gradientColor=inherit;fontColor=inherit;html=1;shadow=0;dashed=0;shape=mxgraph.bootstrap.topButton;rSize=5;perimeter=none;whiteSpace=wrap;resizeWidth=1;align=left;spacing=10;" parent="63zT1nHEPylesp3RLL4u-1" vertex="1">
          <mxGeometry width="680" height="30" relative="1" as="geometry" />
        </mxCell>
        <mxCell id="63zT1nHEPylesp3RLL4u-3" value="Язык" style="strokeColor=inherit;fillColor=inherit;gradientColor=inherit;fontColor=inherit;html=1;shadow=0;dashed=0;perimeter=none;whiteSpace=wrap;resizeWidth=1;align=left;spacing=10;fontSize=16;fontFamily=Times New Roman;" parent="63zT1nHEPylesp3RLL4u-1" vertex="1">
          <mxGeometry width="680" height="30" relative="1" as="geometry">
            <mxPoint y="30" as="offset" />
          </mxGeometry>
        </mxCell>
        <mxCell id="63zT1nHEPylesp3RLL4u-4" value="Язык" style="strokeColor=inherit;fillColor=inherit;gradientColor=inherit;fontColor=inherit;html=1;shadow=0;dashed=0;perimeter=none;whiteSpace=wrap;resizeWidth=1;align=left;spacing=10;fontFamily=Times New Roman;fontSize=16;" parent="63zT1nHEPylesp3RLL4u-1" vertex="1">
          <mxGeometry width="680" height="30" relative="1" as="geometry">
            <mxPoint y="60" as="offset" />
          </mxGeometry>
        </mxCell>
        <mxCell id="63zT1nHEPylesp3RLL4u-5" value="Язык" style="strokeColor=inherit;fillColor=inherit;gradientColor=inherit;fontColor=inherit;html=1;shadow=0;dashed=0;perimeter=none;whiteSpace=wrap;resizeWidth=1;align=left;spacing=10;fontFamily=Times New Roman;fontSize=16;" parent="63zT1nHEPylesp3RLL4u-1" vertex="1">
          <mxGeometry width="680" height="30" relative="1" as="geometry">
            <mxPoint y="90" as="offset" />
          </mxGeometry>
        </mxCell>
        <mxCell id="63zT1nHEPylesp3RLL4u-6" value="Язык" style="strokeColor=inherit;fillColor=inherit;gradientColor=inherit;fontColor=inherit;html=1;shadow=0;dashed=0;shape=mxgraph.bootstrap.bottomButton;rSize=5;perimeter=none;whiteSpace=wrap;resizeWidth=1;resizeHeight=0;align=left;spacing=10;fontFamily=Times New Roman;fontSize=16;" parent="63zT1nHEPylesp3RLL4u-1" vertex="1">
          <mxGeometry y="1" width="680" height="30" relative="1" as="geometry">
            <mxPoint y="-30" as="offset" />
          </mxGeometry>
        </mxCell>
        <mxCell id="63zT1nHEPylesp3RLL4u-10" value="" style="strokeWidth=1;html=1;shadow=0;dashed=0;shape=transparent;strokeColor=#33b5e5" parent="1" vertex="1">
          <mxGeometry x="80" y="480" width="350" height="50" as="geometry" />
        </mxCell>
        <mxCell id="63zT1nHEPylesp3RLL4u-23" value="Уведомления" style="rounded=1;fillColor=#F0F2F5;strokeColor=#D8DCE3;align=left;verticalAlign=middle;fontStyle=0;fontSize=20;labelPosition=right;verticalLabelPosition=middle;spacingLeft=10;html=1;shadow=0;dashed=0;fontFamily=Times New Roman;" parent="1" vertex="1">
          <mxGeometry x="80" y="480" width="20" height="20" as="geometry" />
        </mxCell>
        <mxCell id="tULRcdEDzQGVB3Shv_y_-1" value="&lt;font face=&quot;Times New Roman&quot;&gt;&lt;span style=&quot;font-size: 20px;&quot;&gt;Сохранить изменения&lt;/span&gt;&lt;/font&gt;" style="rounded=1;fillColor=#0050ef;strokeColor=#001DBC;html=1;whiteSpace=wrap;fontColor=#ffffff;align=center;verticalAlign=middle;fontStyle=0;fontSize=12;sketch=0;" parent="1" vertex="1">
          <mxGeometry x="80" y="530" width="220" height="40" as="geometry" />
        </mxCell>
      </root>
    </mxGraphModel>
  </diagram>
</mxfile>
